<mxfile host="app.diagrams.net" modified="2024-05-12T03:19:41.463Z" agent="Mozilla/5.0 (Windows NT 10.0; Win64; x64) AppleWebKit/537.36 (KHTML, like Gecko) Chrome/124.0.0.0 Safari/537.36 Edg/124.0.0.0" version="24.4.0" etag="FWOhDPcUjKQmc2zjqxFN" type="github">
  <diagram name="PÃ¡gina-1" id="14QlSqQN3L2YagDvEcVa">
    <mxGraphModel>
      <root>
        <mxCell id="0" />
        <mxCell id="1" parent="0" />
      </root>
    </mxGraphModel>
  </diagram>
</mxfile>
